<svg width="64" height="64" viewBox="0 0 64 64" fill="none" xmlns="http://www.w3.org/2000/svg">
  <defs>
    <linearGradient id="shieldGradient" x1="14" y1="6" x2="52" y2="60" gradientUnits="userSpaceOnUse">
      <stop stop-color="#6DD6F6" />
      <stop offset="1" stop-color="#1C7FBC" />
    </linearGradient>
    <linearGradient id="detailGradient" x1="18" y1="18" x2="46" y2="46" gradientUnits="userSpaceOnUse">
      <stop stop-color="#DFF6FF" stop-opacity="0.95" />
      <stop offset="1" stop-color="#9BD7F5" stop-opacity="0.95" />
    </linearGradient>
  </defs>
  <path
    d="M32 6C24.3 6 18 12.3 18 20v10.7c0 9.2 5.4 17.6 14 21.6 8.6-4 14-12.4 14-21.6V20C46 12.3 39.7 6 32 6Z"
    fill="url(#shieldGradient)"
    stroke="#8BE0FA"
    stroke-width="1"
  />
  <rect x="19.5" y="18.5" width="25" height="6" rx="3" fill="url(#detailGradient)" />
  <rect x="19.5" y="28.5" width="25" height="6" rx="3" fill="url(#detailGradient)" />
  <path
    d="M32 39.5c-3 0-5.8 1.3-7.6 3.6l3.5 2.7c1-1.3 2.4-2.1 4.1-2.1s3.1.8 4.1 2.1l3.5-2.7c-1.8-2.3-4.6-3.6-7.6-3.6Z"
    fill="url(#detailGradient)"
  />
</svg>
